<?xml version="1.0" encoding="UTF-8" standalone="no"?>
<!-- Created with Inkscape (http://www.inkscape.org/) -->

<svg
   width="210mm"
   height="297mm"
   viewBox="0 0 210 297"
   version="1.1"
   id="svg5"
   xml:space="preserve"
   inkscape:export-filename="amogus.png"
   inkscape:export-xdpi="96"
   inkscape:export-ydpi="96"
   inkscape:version="1.2.1 (9c6d41e410, 2022-07-14)"
   sodipodi:docname="drawing.svg"
   xmlns:inkscape="http://www.inkscape.org/namespaces/inkscape"
   xmlns:sodipodi="http://sodipodi.sourceforge.net/DTD/sodipodi-0.dtd"
   xmlns="http://www.w3.org/2000/svg"
   xmlns:svg="http://www.w3.org/2000/svg"><sodipodi:namedview
     id="namedview7"
     pagecolor="#ffffff"
     bordercolor="#000000"
     borderopacity="0.25"
     inkscape:showpageshadow="2"
     inkscape:pageopacity="0.0"
     inkscape:pagecheckerboard="0"
     inkscape:deskcolor="#d1d1d1"
     inkscape:document-units="mm"
     showgrid="false"
     inkscape:zoom="0.2102413"
     inkscape:cx="-268.73882"
     inkscape:cy="-1914.4668"
     inkscape:window-width="1247"
     inkscape:window-height="1509"
     inkscape:window-x="22"
     inkscape:window-y="69"
     inkscape:window-maximized="0"
     inkscape:current-layer="layer1" /><defs
     id="defs2" /><g
     inkscape:label="Layer 1"
     inkscape:groupmode="layer"
     id="layer1"><rect
       style="fill:#000000;fill-opacity:0;stroke-width:1.38336"
       id="rect1595"
       width="92.604164"
       height="92.604164"
       x="-23.682993"
       y="-559.89594" /><path
       style="fill:#cdd6f4;fill-opacity:1;stroke:none;stroke-width:0.0264859"
       d="m 16.21081,-557.39824 0.02649,0.26486 c -0.716259,0.0566 -1.439828,0.2504 -2.118874,0.47675 -4.3221306,1.44071 -7.0589736,5.41984 -8.8544016,9.4025 -0.458683,1.01746 -0.835392,2.07464 -1.126791,3.15182 -0.221025,0.81704 -0.389422,1.65053 -0.499762,2.48968 -0.182488,1.38768 -0.272752,2.75128 -0.9145589,4.02586 -1.124248,2.23274 -3.57226201,2.53873 -5.767363,2.92007 -2.051599,0.35643 -4.158475,1.06148 -5.418291,2.82738 -0.700309,0.98156 -1.040425,2.21078 -1.210361,3.39019 -0.304432,2.11279 -0.139213,4.23219 -0.232245,6.35663 -0.06952,1.58756 -0.05166,3.18175 -0.1602435,4.76746 -0.08384,1.22445 -0.207759,2.45551 -0.261446,3.68155 -0.07968,1.81984 -10e-4,3.66088 -10e-4,5.48258 v 3.73451 c 0,0.59063 -0.07913,1.24325 0.0038,1.82753 0.03247,0.22857 0.205547,0.41741 0.230035,0.66214 0.03276,0.32737 -0.04836,0.65553 -0.01747,0.97998 0.2206965,2.31911 0.4750775,4.768 1.5788575,6.85986 1.216527,2.3056 3.514525,3.98083 6.071079,4.45996 0.789492,0.14779 1.58229499,0.18461 2.38373299,0.17507 0.847205,-0.0101 1.69507201,-0.2042 2.26613501,0.60918 0.101865,0.14514 0.178038,0.31042 0.238479,0.47675 0.303661,0.8351 0.218536,1.827 0.278791,2.70156 0.102103,1.48295 0.367625,2.96431 0.421682,4.44964 0.0196,0.53872 0.09207,1.07638 0.105255,1.61564 0.0032,0.1319 0.05811,0.4643 -0.04206,0.56309 -0.102607,0.10118 -0.401659,0.10303 -0.540234,0.13084 -0.461411,0.0922 -0.922054,0.1899 -1.377267,0.30936 -0.92719301,0.24393 -1.76952501,0.67035 -2.675079,0.96541 -0.68233,0.22248 -1.458261,0.31968 -2.039389,0.77286 -1.069343,0.83404 -0.75371,2.68938 0.291319,3.39364 1.003339,0.67645 2.36905899,0.8298 3.52262699,1.1185 2.57994101,0.64599 5.18498991,1.16962 7.81334691,1.57724 3.0098866,0.46694 6.0475826,0.75537 9.0846706,0.88833 2.363074,0.10356 4.73118,0.0789 7.098227,0.10701 5.737642,0.0683 11.525612,-0.0342 17.215852,-0.83643 1.72979,-0.24367 3.445548,-0.53713 5.164748,-0.84755 1.70808,-0.30803 3.42887,-0.67354 5.05881,-1.28112 1.06871,-0.39835 2.75295,-0.90185 3.16931,-2.09372 0.37504,-1.07453 -0.50323,-1.85348 -1.36826,-2.3101 -0.42245,-0.22274 -0.85656,-0.35941 -1.29781,-0.53581 -0.41901,-0.16765 -0.80888,-0.37901 -1.24484,-0.50667 -0.76942,-0.22487 -1.5632,-0.35518 -2.33076,-0.5864 -0.40471,-0.12184 -0.77207,-0.31439 -1.16538,-0.45768 0.60679,-1.00408 1.14975,-2.00525 1.51843,-3.12534 0.54906,-1.66755 0.73896,-3.3804 0.95217,-5.11178 0.17137,-1.39051 0.38087,-2.77626 0.61262,-4.15829 0.53846,-3.21089 1.0846,-6.41992 1.55896,-9.64088 0.50562,-3.43257 0.95164,-6.88077 0.86662,-10.35598 -0.0387,-1.57883 -0.21241,-3.15633 -0.4831,-4.7145 -0.16607,-0.95667 -0.42642,-1.89136 -0.51859,-2.86048 -0.10065,-1.05546 0.0352,-2.13 0.48045,-3.09885 0.19547,-0.42536 0.48257,-0.79855 0.73207,-1.19187 0.38855,-0.61235 0.74982,-1.24748 1.05255,-1.90698 1.1087,-2.41446 1.50016,-5.00214 1.11347,-7.62795 -0.58322,-3.96002 -3.16639,-7.15774 -5.43783,-10.30302 -0.98845,-1.36882 -1.99068,-2.72713 -2.96642,-4.10532 -1.23398,-1.74368 -2.419488,-3.44458 -4.036978,-4.86586 -3.21513,-2.82536 -7.4693,-4.56472 -11.70678,-5.08527 -0.54084,-0.0664 -1.12353,-0.008 -1.66861,-0.008 h -3.31074 -10.117626 m 24.843796,11.94515 c -0.56945,0.13561 -1.26868,0.0196 -1.85402,0.0266 -1.50625,0.0179 -2.9982,-0.0921 -4.5026,-0.15799 -3.30492,-0.14461 -6.69829,0.25634 -9.93222,0.9259 -1.576445,0.32639 -3.254328,0.61013 -4.63504,1.48469 -0.429336,0.27196 -0.807026,0.59353 -1.16538,0.95209 -1.770319,1.77099 -1.802367,4.28574 -1.962342,6.62149 -0.370273,5.4063 0.847814,11.91919 5.537941,15.27098 0.865031,0.61819 1.838388,1.07639 2.833991,1.44031 1.43369,0.52389 2.96298,0.7816 4.47612,0.93283 4.10426,0.41027 8.04934,-0.32498 12.02461,-1.319 1.30205,-0.32551 2.59086,-0.70214 3.893428,-1.02606 0.41901,-0.10436 1.13943,-0.31598 1.31265,0.24817 0.21215,0.69076 0.0185,1.46256 0.067,2.17185 0.0919,1.34336 0.2789,2.68223 0.37081,4.02586 0.20103,2.93623 0.0948,5.88861 -0.10595,8.8198 -0.14408,2.10245 -0.33637,4.22371 -0.69764,6.30365 -0.46615,2.68329 -1.29436,5.29003 -1.761308,7.97226 -0.32948,1.89322 -0.55965,3.79729 -0.42801,5.72096 0.0744,1.08911 0.38007,2.48624 -0.43066,3.3902 -0.52548,0.58561 -1.39819,0.7477 -2.14086,0.85099 -1.61087,0.22408 -3.35894,0.29559 -4.97935,0.13349 -0.76068,-0.076 -1.6024,-0.20791 -2.16946,-0.77497 -0.81206,-0.81206 -0.89761,-2.22721 -0.90291,-3.30836 -0.002,-0.30671 -0.0249,-0.61951 0.005,-0.92701 0.0853,-0.89734 0.24394,-1.78197 0.3663,-2.67508 0.0474,-0.34617 0.022,-0.88383 0.24871,-1.16485 0.21003,-0.26062 0.56944,-0.24208 0.8637,-0.33001 0.40285,-0.12051 0.79299,-0.35915 1.16538,-0.55144 1.07189,-0.55303 2.08047,-1.2451 2.99291,-2.03253 0.39279,-0.33902 0.83908,-0.71326 1.1389,-1.13889 -1.19187,0.22115 -2.47379,0.15812 -3.68155,0.24075 -2.75745,0.18885 -5.61025,0.15945 -8.34306,-0.2871 -1.41859,-0.23202 -2.84883,-0.53634 -4.290722,-0.53634 -0.708234,0 -1.480033,0.0567 -2.065902,0.50058 -0.49767,0.37689 -0.728628,0.97521 -0.858674,1.56532 -0.199174,0.90264 -0.246054,1.83627 -0.30909,2.75453 -0.08634,1.25994 -0.18911,2.49445 -0.183018,3.76101 0.0037,0.76809 0.112035,1.53353 0.0784,2.30427 -0.06489,1.48427 -0.464828,2.89518 -1.463347,4.02586 -0.284988,0.32286 -0.65791,0.59382 -1.02527,0.81577 -0.487341,0.29426 -1.016,0.51065 -1.562669,0.66744 -0.983105,0.28208 -2.05062,0.41451 -3.072367,0.36975 -1.606821,-0.0705 -3.685278,-0.42298 -4.7552556,-1.74702 -0.990838,-1.22603 -0.990918,-3.0125 -1.185059,-4.5026 -0.44801,-3.43893 -0.769046,-6.9221 -0.920572,-10.38248 l -0.342251,-7.76038 c -0.07641,-1.74542 -0.0598,-3.49613 -0.0806,-5.2442 -0.03819,-3.21195 -0.05287,-6.42575 -0.05287,-9.64088 0,-3.23605 -0.08743,-6.49011 0.054,-9.72033 0.09267,-2.11649 0.297622,-4.22663 0.574188,-6.33014 0.278923,-2.12118 0.642813,-4.23746 1.087803,-6.33013 0.27209,-1.27959 0.491579,-2.58964 0.880313,-3.84046 0.26711,-0.85955 0.649514,-1.67389 1.0240776,-2.48968 0.224124,-0.48808 0.464536,-0.96864 0.688634,-1.45673 0.137621,-0.29971 0.241657,-0.6537 0.426264,-0.927 0.392204,-0.5806 0.904653,-1.10468 1.380605,-1.61565 1.106847,-1.18831 2.398989,-2.24415 3.922274,-2.84856 2.124171,-0.84286 4.283833,-0.38357 6.489051,-0.38272 2.654947,10e-4 5.358107,-0.16885 7.972267,0.40852 2.67402,0.59064 5.16581,1.99489 7.23065,3.77282 0.68466,0.58962 1.30894,1.23525 1.90831,1.91042 0.28499,0.32099 0.65421,0.67373 0.84623,1.05944 m -17.242337,5.8269 c 3.500117,-0.72216 6.964477,-1.65974 10.541397,-1.90462 3.23155,-0.22124 6.63181,0.29841 9.64088,1.50204 1.450628,0.58031 2.879808,1.34148 4.078828,2.35168 1.03878,0.8751 1.90301,1.99818 2.3395,3.29512 0.12078,0.35846 0.37478,0.94218 0.29823,1.32429 -0.0453,0.22675 -0.2593,0.45826 -0.39755,0.63567 -1.02713,1.31743 -2.67746,1.74012 -4.25311,1.96711 -1.539888,0.22195 -3.088258,0.37742 -4.635038,0.52707 -1.95837,0.18963 -3.91356,0.29214 -5.87987,0.34007 -2.73918,0.0673 -5.64071,0.0387 -7.86632,-1.81282 -0.43596,-0.36278 -0.82795,-0.77956 -1.16803,-1.23332 -0.88437,-1.17894 -1.37436,-2.54707 -1.78303,-3.9464 -0.199443,-0.68252 -0.414244,-1.36048 -0.625337,-2.03942 -0.09985,-0.32204 -0.261151,-0.66959 -0.29055,-1.00647 m -24.47299151,9.30425 c 0.746268,-0.0882 1.572416,0.0376 2.30427501,0.18301 0.289942,0.0577 0.651925,0.12687 0.761497,0.44497 0.09479,0.27545 0.01184,0.61924 -0.01539,0.90052 -0.04696,0.48522 -0.08544,0.97124 -0.13243,1.45672 -0.173085,1.7886 -0.277943,3.55494 -0.321936,5.35016 -0.108963,4.44672 -0.135476,8.92735 -0.02649,13.37539 0.04685,1.91282 0.181932,3.83568 0.185004,5.74744 0.0021,1.32006 0.143819,2.65918 0.269362,3.97289 0.07329,0.76729 0.161829,1.56028 0.07935,2.33076 -0.106977,0.99905 -0.522991,2.02458 -1.64652401,2.16416 -0.722642,0.09 -1.451561,-0.11733 -2.11887399,-0.38431 -1.347524,-0.53899 -2.581397,-1.34734 -3.247968,-2.68037 -0.534274,-1.06845 -0.586902,-2.25608 -0.740176,-3.41669 -0.219065,-1.65881 -0.257072,-3.33802 -0.330094,-5.00583 -0.169748,-3.87621 0.0036,-7.78951 0.268276,-11.6538 0.123186,-1.79919 0.289862,-3.6013 0.369452,-5.40313 0.01096,-0.24818 0.01496,-0.53025 0.0922,-0.76809 0.07583,-0.23361 0.245657,-0.441 0.272964,-0.68864 0.22264,-2.0177 0.448433,-4.64934 2.573742,-5.6068 0.445679,-0.20077 0.924412,-0.26195 1.40375399,-0.31836 m 30.48529451,48.91181 -2.2513,-0.13005 -1.3243,0.26248 c 0.33478,-1.72636 0.31783,-3.49191 0.31783,-5.24422 0,-0.57183 -0.20156,-1.61908 0.31889,-2.01478 0.63646,-0.48416 1.58942,-0.0911 1.82647,0.61103 0.17772,0.52654 0.12608,1.09599 0.13243,1.64213 0.006,0.45767 0.0615,0.92197 0.11045,1.37726 0.1311,1.22365 0.54932,2.32308 0.86953,3.49615 z"
       id="path914"
       inkscape:export-filename="amogus.png"
       inkscape:export-xdpi="13.714286"
       inkscape:export-ydpi="13.714286" /></g></svg>
